<svg width="24" height="23" viewBox="0 0 24 23" fill="none" xmlns="http://www.w3.org/2000/svg">
<g clip-path="url(#clip0_1_2379)">
<path d="M12 22.0689C12.7956 22.0689 13.5587 21.7782 14.1213 21.2609C14.6839 20.7435 15 20.0419 15 19.3102H9C9 20.0419 9.31607 20.7435 9.87868 21.2609C10.4413 21.7782 11.2044 22.0689 12 22.0689ZM12 2.64541L10.8045 2.86748C9.44844 3.12155 8.2295 3.79866 7.35398 4.7842C6.47846 5.76974 6.00015 7.00318 6 8.27576C6 9.14196 5.799 11.3061 5.3115 13.4371C5.0715 14.4951 4.7475 15.5971 4.317 16.5516H19.683C19.2525 15.5971 18.93 14.4964 18.6885 13.4371C18.201 11.3061 18 9.14196 18 8.27576C17.9995 7.00342 17.521 5.77031 16.6455 4.78505C15.7701 3.79979 14.5513 3.12288 13.1955 2.86886L12 2.64403V2.64541ZM21.33 16.5516C21.6645 17.1682 22.0515 17.6564 22.5 17.9309H1.5C1.9485 17.6564 2.3355 17.1682 2.67 16.5516C4.02 14.0689 4.5 9.48955 4.5 8.27576C4.5 4.93783 7.08 2.15162 10.5075 1.51576C10.4866 1.32397 10.5096 1.13028 10.5751 0.947168C10.6405 0.76406 10.747 0.595605 10.8876 0.452664C11.0283 0.309724 11.1999 0.195473 11.3915 0.11728C11.5831 0.039087 11.7904 -0.00131226 12 -0.00131226C12.2096 -0.00131226 12.4169 0.039087 12.6085 0.11728C12.8001 0.195473 12.9717 0.309724 13.1124 0.452664C13.253 0.595605 13.3595 0.76406 13.4249 0.947168C13.4904 1.13028 13.5134 1.32397 13.4925 1.51576C15.1879 1.83286 16.7121 2.67901 17.8069 3.91093C18.9016 5.14285 19.4998 6.68482 19.5 8.27576C19.5 9.48955 19.98 14.0689 21.33 16.5516Z" fill="#212529"/>
</g>
<defs>
<clipPath id="clip0_1_2379">
<rect width="24" height="22.069" fill="white"/>
</clipPath>
</defs>
</svg>
